<svg width="28" height="29" viewBox="0 0 28 29" fill="none" xmlns="http://www.w3.org/2000/svg">
<path d="M10.5 17.5625C11.2249 17.5625 11.8125 16.9749 11.8125 16.25C11.8125 15.5251 11.2249 14.9375 10.5 14.9375C9.77513 14.9375 9.1875 15.5251 9.1875 16.25C9.1875 16.9749 9.77513 17.5625 10.5 17.5625Z" fill="white"/>
<path d="M17.5 17.5625C18.2249 17.5625 18.8125 16.9749 18.8125 16.25C18.8125 15.5251 18.2249 14.9375 17.5 14.9375C16.7751 14.9375 16.1875 15.5251 16.1875 16.25C16.1875 16.9749 16.7751 17.5625 17.5 17.5625Z" fill="white"/>
<path fill-rule="evenodd" clip-rule="evenodd" d="M13.9935 9.24995C12.0967 9.23592 10.2093 9.51763 8.39919 10.0849C7.93805 10.2295 7.44707 9.97279 7.30255 9.51166C7.15803 9.05052 7.41469 8.55954 7.87582 8.41502C9.85736 7.79398 11.9235 7.48527 14 7.49995C16.0765 7.48527 18.1426 7.79398 20.1242 8.41502C20.5853 8.55954 20.842 9.05052 20.6975 9.51166C20.5529 9.97279 20.062 10.2295 19.6008 10.0849C17.7907 9.51763 15.9033 9.23592 14.0065 9.24995H13.9935Z" fill="white"/>
<path fill-rule="evenodd" clip-rule="evenodd" d="M7.30255 19.4883C7.44707 19.0272 7.93805 18.7705 8.39919 18.915C10.2093 19.4823 12.0967 19.764 13.9935 19.75H14.0065C15.9033 19.764 17.7907 19.4823 19.6008 18.915C20.062 18.7705 20.5529 19.0272 20.6975 19.4883C20.842 19.9494 20.5853 20.4404 20.1242 20.5849C18.1426 21.206 16.0765 21.5147 14 21.5C11.9235 21.5147 9.85736 21.206 7.87582 20.5849C7.41469 20.4404 7.15803 19.9494 7.30255 19.4883Z" fill="white"/>
<path fill-rule="evenodd" clip-rule="evenodd" d="M17.6925 4.70963C18.0691 4.49727 18.5107 4.43091 18.9331 4.52317C20.086 4.77302 21.2147 5.12352 22.3063 5.57065C22.552 5.66539 22.7726 5.81541 22.9512 6.00915C23.1317 6.20498 23.2641 6.44006 23.3381 6.69582L27.0444 19.0722C27.1411 19.3946 27.1433 19.738 27.0508 20.0616C26.9583 20.3853 26.775 20.6756 26.5226 20.8983L26.5181 20.9023C24.7091 22.4764 22.2579 23.6678 19.4737 24.3503C19.087 24.4489 18.6779 24.4105 18.3162 24.2417C17.9559 24.0736 17.6647 23.7864 17.4915 23.4287L16.1718 20.8111C15.9543 20.3796 16.1277 19.8534 16.5592 19.6359C16.9907 19.4183 17.5169 19.5918 17.7344 20.0233L19.0579 22.6483L19.0588 22.6502C21.6295 22.0198 23.8119 20.9373 25.3694 19.5821L25.9437 20.2422L25.3649 19.586C25.3664 19.5847 25.3676 19.5829 25.3681 19.5808C25.3687 19.5788 25.3687 19.5767 25.3681 19.5747L21.6615 7.19764C21.6584 7.19641 21.6553 7.19516 21.6523 7.19389C20.6522 6.78362 19.618 6.46217 18.5616 6.23328L18.5597 6.23286C18.5571 6.23229 18.5543 6.2327 18.552 6.23402C18.5499 6.23521 18.5482 6.23705 18.5473 6.23927L17.6855 8.84648C17.5338 9.30532 17.0389 9.55432 16.5801 9.40266C16.1212 9.251 15.8722 8.75609 16.0239 8.29726L16.8905 5.67558C17.03 5.266 17.3155 4.92215 17.6925 4.70963Z" fill="white"/>
<path fill-rule="evenodd" clip-rule="evenodd" d="M9.44803 6.23402C9.44569 6.2327 9.44294 6.23229 9.44032 6.23286L9.43841 6.23328C8.382 6.46217 7.34778 6.78362 6.34774 7.19389C6.34465 7.19516 6.34156 7.19641 6.33845 7.19764L2.63197 19.5745C2.63137 19.5765 2.63128 19.5788 2.63186 19.5809C2.63237 19.5827 2.63335 19.5843 2.63468 19.5856C4.19191 20.9392 6.37275 22.0203 8.94118 22.6502L8.94212 22.6483L10.2656 20.0233C10.4831 19.5918 11.0093 19.4183 11.4408 19.6359C11.8723 19.8534 12.0457 20.3796 11.8282 20.8111L10.5085 23.4287C10.3353 23.7864 10.0441 24.0736 9.68384 24.2417C9.32206 24.4105 8.91305 24.4489 8.52631 24.3503C5.74211 23.6678 3.29092 22.4764 1.48188 20.9023L1.47735 20.8983C1.22494 20.6756 1.04166 20.3853 0.949189 20.0616C0.856741 19.738 0.858943 19.3948 0.95553 19.0724C0.955555 19.0723 0.955505 19.0725 0.95553 19.0724L4.66194 6.69584C4.7359 6.44008 4.86833 6.20498 5.0488 6.00915C5.22735 5.8154 5.44804 5.66539 5.69375 5.57065C6.78562 5.1234 7.91465 4.77282 9.06784 4.52296C9.48995 4.43101 9.93117 4.49743 10.3075 4.70963C10.6845 4.92215 10.9699 5.26601 11.1095 5.6756L11.1121 5.68318L11.9761 8.29726C12.1278 8.75609 11.8788 9.251 11.4199 9.40266C10.9611 9.55432 10.4662 9.30532 10.3145 8.84648L9.45272 6.23926C9.45178 6.23705 9.45014 6.23521 9.44803 6.23402Z" fill="white"/>
<path d="M10.5 17.5625C11.2249 17.5625 11.8125 16.9749 11.8125 16.25C11.8125 15.5251 11.2249 14.9375 10.5 14.9375C9.77513 14.9375 9.1875 15.5251 9.1875 16.25C9.1875 16.9749 9.77513 17.5625 10.5 17.5625Z" fill="white"/>
<path d="M17.5 17.5625C18.2249 17.5625 18.8125 16.9749 18.8125 16.25C18.8125 15.5251 18.2249 14.9375 17.5 14.9375C16.7751 14.9375 16.1875 15.5251 16.1875 16.25C16.1875 16.9749 16.7751 17.5625 17.5 17.5625Z" fill="white"/>
<path fill-rule="evenodd" clip-rule="evenodd" d="M13.9935 9.24995C12.0967 9.23592 10.2093 9.51763 8.39919 10.0849C7.93805 10.2295 7.44707 9.97279 7.30255 9.51166C7.15803 9.05052 7.41469 8.55954 7.87582 8.41502C9.85736 7.79398 11.9235 7.48527 14 7.49995C16.0765 7.48527 18.1426 7.79398 20.1242 8.41502C20.5853 8.55954 20.842 9.05052 20.6975 9.51166C20.5529 9.97279 20.062 10.2295 19.6008 10.0849C17.7907 9.51763 15.9033 9.23592 14.0065 9.24995H13.9935Z" fill="white"/>
<path fill-rule="evenodd" clip-rule="evenodd" d="M7.30255 19.4883C7.44707 19.0272 7.93805 18.7705 8.39919 18.915C10.2093 19.4823 12.0967 19.764 13.9935 19.75H14.0065C15.9033 19.764 17.7907 19.4823 19.6008 18.915C20.062 18.7705 20.5529 19.0272 20.6975 19.4883C20.842 19.9494 20.5853 20.4404 20.1242 20.5849C18.1426 21.206 16.0765 21.5147 14 21.5C11.9235 21.5147 9.85736 21.206 7.87582 20.5849C7.41469 20.4404 7.15803 19.9494 7.30255 19.4883Z" fill="white"/>
<path fill-rule="evenodd" clip-rule="evenodd" d="M17.6925 4.70963C18.0691 4.49727 18.5107 4.43091 18.9331 4.52317C20.086 4.77302 21.2147 5.12352 22.3063 5.57065C22.552 5.66539 22.7726 5.81541 22.9512 6.00915C23.1317 6.20498 23.2641 6.44006 23.3381 6.69582L27.0444 19.0722C27.1411 19.3946 27.1433 19.738 27.0508 20.0616C26.9583 20.3853 26.775 20.6756 26.5226 20.8983L26.5181 20.9023C24.7091 22.4764 22.2579 23.6678 19.4737 24.3503C19.087 24.4489 18.6779 24.4105 18.3162 24.2417C17.9559 24.0736 17.6647 23.7864 17.4915 23.4287L16.1718 20.8111C15.9543 20.3796 16.1277 19.8534 16.5592 19.6359C16.9907 19.4183 17.5169 19.5918 17.7344 20.0233L19.0579 22.6483L19.0588 22.6502C21.6295 22.0198 23.8119 20.9373 25.3694 19.5821L25.9437 20.2422L25.3649 19.586C25.3664 19.5847 25.3676 19.5829 25.3681 19.5808C25.3687 19.5788 25.3687 19.5767 25.3681 19.5747L21.6615 7.19764C21.6584 7.19641 21.6553 7.19516 21.6523 7.19389C20.6522 6.78362 19.618 6.46217 18.5616 6.23328L18.5597 6.23286C18.5571 6.23229 18.5543 6.2327 18.552 6.23402C18.5499 6.23521 18.5482 6.23705 18.5473 6.23927L17.6855 8.84648C17.5338 9.30532 17.0389 9.55432 16.5801 9.40266C16.1212 9.251 15.8722 8.75609 16.0239 8.29726L16.8905 5.67558C17.03 5.266 17.3155 4.92215 17.6925 4.70963Z" fill="white"/>
<path fill-rule="evenodd" clip-rule="evenodd" d="M9.44803 6.23402C9.44569 6.2327 9.44294 6.23229 9.44032 6.23286L9.43841 6.23328C8.382 6.46217 7.34778 6.78362 6.34774 7.19389C6.34465 7.19516 6.34156 7.19641 6.33845 7.19764L2.63197 19.5745C2.63137 19.5765 2.63128 19.5788 2.63186 19.5809C2.63237 19.5827 2.63335 19.5843 2.63468 19.5856C4.19191 20.9392 6.37275 22.0203 8.94118 22.6502L8.94212 22.6483L10.2656 20.0233C10.4831 19.5918 11.0093 19.4183 11.4408 19.6359C11.8723 19.8534 12.0457 20.3796 11.8282 20.8111L10.5085 23.4287C10.3353 23.7864 10.0441 24.0736 9.68384 24.2417C9.32206 24.4105 8.91305 24.4489 8.52631 24.3503C5.74211 23.6678 3.29092 22.4764 1.48188 20.9023L1.47735 20.8983C1.22494 20.6756 1.04166 20.3853 0.949189 20.0616C0.856741 19.738 0.858943 19.3948 0.95553 19.0724C0.955555 19.0723 0.955505 19.0725 0.95553 19.0724L4.66194 6.69584C4.7359 6.44008 4.86833 6.20498 5.0488 6.00915C5.22735 5.8154 5.44804 5.66539 5.69375 5.57065C6.78562 5.1234 7.91465 4.77282 9.06784 4.52296C9.48995 4.43101 9.93117 4.49743 10.3075 4.70963C10.6845 4.92215 10.9699 5.26601 11.1095 5.6756L11.1121 5.68318L11.9761 8.29726C12.1278 8.75609 11.8788 9.251 11.4199 9.40266C10.9611 9.55432 10.4662 9.30532 10.3145 8.84648L9.45272 6.23926C9.45178 6.23705 9.45014 6.23521 9.44803 6.23402Z" fill="white"/>
</svg>
