<svg width="28" height="29" viewBox="0 0 28 29" fill="none" xmlns="http://www.w3.org/2000/svg">
<path fill-rule="evenodd" clip-rule="evenodd" d="M23.5165 3.66538C23.812 3.55083 24.1331 3.51866 24.4454 3.57233C24.7578 3.626 25.0497 3.76349 25.29 3.97011C25.5303 4.17674 25.71 4.44474 25.8099 4.74552C25.9098 5.04629 25.9261 5.36855 25.8572 5.67788L25.8561 5.68278L25.856 5.68278L21.7435 23.6422L21.7434 23.6426C21.6755 23.9385 21.5318 24.2116 21.3265 24.4351C21.1211 24.6586 20.8611 24.8248 20.5721 24.9175C20.283 25.0102 19.9749 25.0261 19.6778 24.9636C19.3814 24.9013 19.1062 24.7631 18.8792 24.5626C18.8787 24.5622 18.8783 24.5618 18.8778 24.5614L9.22297 16.0664L3.62309 14.9422L3.61949 14.9415C1.93749 14.5965 1.67901 12.2405 3.32292 11.5962L3.64218 12.4109L3.32232 11.5965L3.32292 11.5962L23.5129 3.66678L23.5165 3.66538ZM3.96695 13.2234C3.9671 13.2245 3.96728 13.2255 3.96748 13.2264C3.96831 13.2266 3.96922 13.2268 3.97019 13.227C3.9705 13.2271 3.97081 13.2271 3.97114 13.2272L9.79722 14.3968C9.94777 14.427 10.0877 14.4963 10.203 14.5977L20.0358 23.2493L20.0378 23.2511L24.1491 5.29706L3.96695 13.2234ZM3.95861 13.2236C3.95861 13.2236 3.95862 13.2236 3.95865 13.2237Z" fill="white"/>
<path fill-rule="evenodd" clip-rule="evenodd" d="M25.2203 3.99079C25.5032 4.38255 25.415 4.9295 25.0233 5.21245L10.1373 15.964C9.74557 16.247 9.19862 16.1588 8.91567 15.767C8.63272 15.3753 8.72092 14.8283 9.11268 14.5453L23.9986 3.79379C24.3904 3.51084 24.9373 3.59904 25.2203 3.99079Z" fill="white"/>
<path fill-rule="evenodd" clip-rule="evenodd" d="M9.625 14.3797C10.1082 14.3797 10.5 14.7715 10.5 15.2547L10.5 22.3736L10.5047 22.3688L13.9172 18.9563C14.2589 18.6146 14.8129 18.6146 15.1547 18.9563C15.4964 19.298 15.4964 19.852 15.1547 20.1937L11.7441 23.6043C11.501 23.85 11.1906 24.0183 10.852 24.0878C10.5121 24.1576 10.1591 24.1247 9.83785 23.9934C9.51664 23.8621 9.24171 23.6383 9.04801 23.3504C8.85431 23.0625 8.75058 22.7235 8.75 22.3765L8.75 15.2547C8.75 14.7715 9.14175 14.3797 9.625 14.3797Z" fill="white"/>
</svg>
