<svg width="24" height="24" viewBox="0 0 24 24" fill="none" xmlns="http://www.w3.org/2000/svg">
<path fill-rule="evenodd" clip-rule="evenodd" d="M3.9955 3.19505C4.30199 2.91642 4.77633 2.93901 5.05496 3.2455L20.055 19.7455C20.3336 20.052 20.311 20.5263 20.0045 20.805C19.698 21.0836 19.2237 21.061 18.9451 20.7545L3.94505 4.25451C3.66642 3.94802 3.68901 3.47368 3.9955 3.19505Z" fill="white"/>
<path fill-rule="evenodd" clip-rule="evenodd" d="M10.0331 8.72065C10.3117 9.02717 10.2891 9.5015 9.98255 9.7801C9.53448 10.1874 9.22013 10.7207 9.08083 11.3099C8.94154 11.8992 8.98381 12.5168 9.2021 13.0816C9.42038 13.6464 9.80446 14.1319 10.3038 14.4743C10.8032 14.8168 11.3945 15 12 15.0001L12.0028 15.0001C12.7476 15.0029 13.4661 14.7252 14.0152 14.2221C14.3206 13.9423 14.7951 13.9631 15.0749 14.2685C15.3547 14.5739 15.3339 15.0483 15.0285 15.3281C14.2016 16.0856 13.1198 16.504 11.9985 16.5001C11.0907 16.4997 10.2043 16.2248 9.45559 15.7115C8.70651 15.1978 8.13039 14.4696 7.80296 13.6224C7.47553 12.7752 7.41212 11.8488 7.62106 10.9649C7.83001 10.081 8.30153 9.281 8.97364 8.6701C9.28015 8.3915 9.75449 8.41413 10.0331 8.72065Z" fill="white"/>
<path fill-rule="evenodd" clip-rule="evenodd" d="M7.60701 6.09328C7.7937 6.46304 7.6453 6.91413 7.27554 7.10082C5.49288 8.00089 4.21545 9.30473 3.37984 10.3959C2.96329 10.9399 2.66072 11.4255 2.4638 11.7721C2.41564 11.8568 2.37389 11.9331 2.3384 11.9997C2.42664 12.165 2.55342 12.3896 2.72062 12.6551C3.09641 13.252 3.67211 14.049 4.46784 14.8447C6.05497 16.4319 8.49945 18.0001 12 18.0001H12.0061C13.6443 18.0134 15.262 17.636 16.7251 16.899C17.095 16.7127 17.546 16.8615 17.7323 17.2314C17.9187 17.6013 17.7698 18.0523 17.3999 18.2386C15.7247 19.0825 13.8725 19.5149 11.9969 19.5001C7.99911 19.4991 5.19458 17.6928 3.40718 15.9054C2.51541 15.0136 1.87237 14.1232 1.45127 13.4544C1.24036 13.1194 1.08406 12.8383 0.979192 12.6381C0.926732 12.538 0.887058 12.4579 0.859783 12.4012C0.846142 12.3729 0.835595 12.3504 0.828091 12.3342L0.81911 12.3146L0.816318 12.3084L0.815345 12.3062L0.814964 12.3054C0.814802 12.305 0.814653 12.3047 1.50001 12.0001C0.814362 11.6961 0.814469 11.6959 0.814583 11.6956L0.815473 11.6936L0.817189 11.6898L0.822444 11.6782C0.826759 11.6687 0.832703 11.6559 0.840295 11.6397C0.855477 11.6074 0.877263 11.562 0.905806 11.5049C0.962874 11.3906 1.04707 11.2291 1.15966 11.031C1.38461 10.6351 1.72423 10.0907 2.18893 9.48392C3.11583 8.27353 4.55714 6.79299 6.59948 5.76181C6.96923 5.57512 7.42032 5.72353 7.60701 6.09328ZM1.50001 12.0001L0.814583 11.6956C0.728681 11.8894 0.728566 12.111 0.814653 12.3047L1.50001 12.0001Z" fill="white"/>
<path fill-rule="evenodd" clip-rule="evenodd" d="M9.9355 4.66969C10.6179 4.55545 11.3088 4.4987 12.0007 4.50002C12.0005 4.50002 12.0009 4.50002 12.0007 4.50002L11.9999 5.25002V4.50002C12.0002 4.50002 12.0004 4.50002 12.0007 4.50002C15.9997 4.50025 18.805 6.30694 20.5928 8.09469C21.4845 8.98646 22.1276 9.87693 22.5487 10.5457C22.7596 10.8807 22.9159 11.1618 23.0208 11.362C23.0732 11.4621 23.1129 11.5422 23.1402 11.5989C23.1538 11.6272 23.1644 11.6497 23.1719 11.6659L23.1808 11.6855L23.1836 11.6917L23.1846 11.6939L23.185 11.6947C23.1852 11.6951 23.1853 11.6954 22.4999 12C21.8146 11.6954 21.8147 11.6953 21.8147 11.6951L21.809 11.7075C21.8037 11.7189 21.7949 11.7377 21.7825 11.7632C21.7578 11.8142 21.7189 11.892 21.6654 11.9925C21.6641 11.995 21.6627 11.9975 21.6614 12C21.5731 11.8348 21.4464 11.6103 21.2793 11.3449C20.9036 10.7481 20.3278 9.95108 19.5321 9.15535C17.945 7.56822 15.5005 6.00002 11.9999 6.00002H11.9985C11.3903 5.99882 10.783 6.04869 10.1831 6.14911C9.77462 6.21749 9.388 5.94175 9.31961 5.53322C9.25123 5.12469 9.52697 4.73808 9.9355 4.66969ZM22.4999 12L23.1853 12.3046C23.2715 12.1107 23.2715 11.8893 23.1853 11.6954L22.4999 12ZM21.6614 12C21.5542 12.2008 21.3905 12.4885 21.1668 12.8306C20.7127 13.525 20.0177 14.434 19.0562 15.2942C18.7474 15.5703 18.721 16.0444 18.9972 16.3532C19.2734 16.6619 19.7475 16.6883 20.0562 16.4121C21.1384 15.4441 21.9153 14.4266 22.4222 13.6515C22.6761 13.2631 22.8638 12.9333 22.9894 12.6975C23.0522 12.5796 23.0996 12.4849 23.132 12.418C23.1483 12.3846 23.1608 12.358 23.1696 12.339L23.1802 12.316L23.1834 12.3088L23.1845 12.3064L23.185 12.3054C23.185 12.3052 23.1853 12.3046 22.4999 12C21.8146 12.3046 21.8147 12.3049 21.8148 12.3052L21.8104 12.2954C21.8061 12.2861 21.7988 12.2707 21.7887 12.2496C21.7683 12.2074 21.7362 12.1424 21.692 12.058C21.6824 12.0396 21.6722 12.0202 21.6614 12Z" fill="white"/>
<path fill-rule="evenodd" clip-rule="evenodd" d="M11.9662 8.17595C12.0434 7.76897 12.4358 7.50157 12.8428 7.57868C13.8001 7.76007 14.6725 8.24795 15.3283 8.96868C15.9841 9.68941 16.3876 10.6039 16.478 11.5741C16.5165 11.9865 16.2133 12.352 15.8009 12.3905C15.3884 12.4289 15.0229 12.1257 14.9845 11.7133C14.9243 11.0672 14.6555 10.4581 14.2188 9.97816C13.7821 9.49817 13.2011 9.17326 12.5635 9.05246C12.1565 8.97535 11.8891 8.58292 11.9662 8.17595Z" fill="white"/>
</svg>
