<svg width="24" height="34" viewBox="0 0 24 34" fill="none" xmlns="http://www.w3.org/2000/svg">
<path fill-rule="evenodd" clip-rule="evenodd" d="M17.6568 22.6569C17.2663 23.0474 16.6332 23.0474 16.2426 22.6569L6.34314 12.7574C5.95261 12.3668 5.95261 11.7337 6.34314 11.3431C6.73366 10.9526 7.36683 10.9526 7.75735 11.3431L17.6568 21.2426C18.0474 21.6332 18.0474 22.2663 17.6568 22.6569Z" fill="white"/>
<path fill-rule="evenodd" clip-rule="evenodd" d="M17.6568 11.3431C18.0474 11.7337 18.0474 12.3668 17.6568 12.7574L7.75735 22.6569C7.36683 23.0474 6.73366 23.0474 6.34314 22.6569C5.95261 22.2663 5.95261 21.6332 6.34314 21.2426L16.2426 11.3431C16.6332 10.9526 17.2663 10.9526 17.6568 11.3431Z" fill="white"/>
</svg>
